<?xml version="1.0" encoding="utf-8"?>
<!-- Generator: Adobe Illustrator 26.0.1, SVG Export Plug-In . SVG Version: 6.00 Build 0)  -->
<svg version="1.1" id="레이어_1" xmlns="http://www.w3.org/2000/svg" xmlns:xlink="http://www.w3.org/1999/xlink" x="0px"
	 y="0px" viewBox="0 0 80 80" style="enable-background:new 0 0 80 80;" xml:space="preserve">
<style type="text/css">
	.st0{fill-rule:evenodd;clip-rule:evenodd;fill:#3DAD6B;}
	.st1{fill-rule:evenodd;clip-rule:evenodd;fill:#0E4926;}
	.st2{fill:#0E4926;}
</style>
<g>
	<g transform="translate(15 8)">
		<g transform="translate(7 5.509)">
			<path class="st0" d="M5.9,0h31.2C40.4,0,43,2.6,43,5.9v48.2c0,3.2-2.6,5.9-5.9,5.9H5.9C2.6,60,0,57.4,0,54.1V5.9
				C0,2.6,2.6,0,5.9,0z"/>
			<path class="st1" d="M18.2,37.6l-2.8-4.1L14.7,33c0,0,0-0.4,0.2-0.5c0.2-0.1,0.6,0.3,0.6,0.2l0.2,0.6l1.3,1.6l1.4,1.7l0.4,0.5
				c0,0,0.2,0.4,0.5,0.3c0.3-0.1,0.4-0.5,0.4-0.5s-0.3-0.5-0.3-0.7c0-0.2,0.5-0.2,0.7-0.4c0.2-0.1,0.5-0.3,0.8-0.3
				c0.3,0,0.4,0.1,0.6,0.3c0.3,0.2,0.2,0.6,0.2,0.8s-0.4,0.6-0.4,0.6l-0.5,0.3l-0.1,0.4l0.6-0.4l0.6-0.2c0,0,1.1,0,1.4-0.1
				c0.3-0.1,1.5-0.7,1.5-0.7s1.2-0.3,1.3-0.3c0.1,0,0.5-0.1,0.7,0c0.2,0.1,0.2,0.2,0.1,0.4c-0.1,0.2-0.1,0.2-0.3,0.2
				c-0.1,0-0.4-0.1-0.4-0.1l-0.9,0.4l-0.7,0.1l-0.6,0.3l-1,0.4l-1.3,0.4c0,0-0.6,0.7-0.7,1c-0.1,0.4-0.4,1.2-0.4,1.2l0.2,0.5
				c0,0,0.5,0.5,0.6,1s0.3,0.3,0.6,0.4c0.3,0.1,0.7,0.4,0.7,0.4l0.7,0.6l0.7,0.5l0.7,0.3c0,0,0.9,0.2,1.2,0.4
				c0.3,0.1,1.3,0.7,1.3,0.7l0.7,0.4l0.8,0.2h0.7l0.3,0.4c0,0,0,0.3-0.4,0.2s-0.9-0.1-0.9-0.1l-0.4-0.1c0,0-0.6-0.4-0.9-0.5
				c-0.3-0.1-1.8-0.5-1.8-0.5l-2-0.7c0,0-1.9-0.8-2.4-0.8S19.9,44,19.7,44c-0.2,0-1.3,0.7-1.3,0.7s-1.2,0.6-1.5,0.7
				c-0.3,0.1-1.3,0.9-1.7,1c-0.4,0.2-1.3,0.4-1.5,0.4c-0.2,0.1-1.6,0.2-1.6,0.2l-0.5,0.3c0,0-0.3,0.5-0.4,0.6
				c-0.1,0.1-0.5,0-0.6-0.1c-0.1-0.1,0-0.1-0.2-0.1s-0.7,0.1-0.8,0.1c-0.1,0-0.5-0.1-0.5-0.2c0-0.2,0.8-0.4,0.8-0.4l0.7-0.4
				c0,0,0.3-0.2,0.5-0.2c0.2,0,0.6-0.2,0.6-0.2l1.5-0.6l1-0.4c0,0,0.7-0.7,1-0.8c0.3-0.1,1.3-0.7,1.3-0.7l1-0.7
				c0.2-0.1,0.5-0.1,0.5-0.4c0-0.3,0.1-1.1,0.1-1.1l0.1-1.1c0,0-0.2-0.7-0.2-1s-0.2-0.6,0-0.9c0.2-0.3,0.1-0.7,0.1-0.7V37.6
				L18.2,37.6z"/>
			<path class="st1" d="M12,6.5h16c1.1,0,2,0.9,2,2l0,0c0,1.1-0.9,2-2,2H12c-1.1,0-2-0.9-2-2l0,0C10,7.4,10.9,6.5,12,6.5z"/>
			<path class="st1" d="M12,14.5h16c1.1,0,2,0.9,2,2l0,0c0,1.1-0.9,2-2,2H12c-1.1,0-2-0.9-2-2l0,0C10,15.4,10.9,14.5,12,14.5z"/>
			<path class="st1" d="M12,22.5h16c1.1,0,2,0.9,2,2l0,0c0,1.1-0.9,2-2,2H12c-1.1,0-2-0.9-2-2l0,0C10,23.4,10.9,22.5,12,22.5z"/>
		</g>
		<path class="st2" d="M4,6.1v50.9c0,1.1,0.9,2,2,2h35c1.1,0,2-0.9,2-2V6.1c0-1.1-0.9-2-2-2H6C4.9,4.1,4,5,4,6.1z M4,0h39
			c2.2,0,4,1.8,4,4.1v54.9c0,2.2-1.8,4.1-4,4.1H4c-2.2,0-4-1.8-4-4.1V4.1C0,1.8,1.8,0,4,0z"/>
		<circle class="st1" cx="9" cy="15" r="4"/>
	</g>
	<path class="st1" d="M17,22h6v3h-6V22z"/>
	<circle class="st1" cx="24" cy="38" r="4"/>
	<path class="st1" d="M17,37h6v3h-6V37z"/>
	<circle class="st1" cx="24" cy="54" r="4"/>
	<path class="st1" d="M17,53h6v3h-6V53z"/>
</g>
</svg>
