<?xml version="1.0" encoding="utf-8"?>
<!-- Generator: Adobe Illustrator 26.0.1, SVG Export Plug-In . SVG Version: 6.00 Build 0)  -->
<svg version="1.1" id="레이어_1" xmlns="http://www.w3.org/2000/svg" xmlns:xlink="http://www.w3.org/1999/xlink" x="0px"
	 y="0px" viewBox="0 0 80 80" style="enable-background:new 0 0 80 80;" xml:space="preserve">
<style type="text/css">
	.st0{fill-rule:evenodd;clip-rule:evenodd;fill:#3DAD6B;}
	.st1{fill:#104926;}
	.st2{fill:#FFFFFF;}
</style>
<g>
	<path class="st0" d="M16.6,21.4h52.9c1.2,0,2.2,1,2.2,2.2v37.7c0,1.2-1,2.2-2.2,2.2H16.6c-1.2,0-2.2-1-2.2-2.2V23.5
		C14.4,22.3,15.4,21.4,16.6,21.4z"/>
	<path class="st1" d="M11.9,20.6v37.6c0,0.5,0.4,0.9,0.9,0.9h0h53.5c0.5,0,0.9-0.4,0.9-0.9v0V20.6c0-0.5-0.4-0.9-0.9-0.9l0,0H12.8
		C12.3,19.7,11.9,20.1,11.9,20.6z M11.9,17.1h55.3c1.5,0,2.7,1.2,2.7,2.7v39.4c0,1.5-1.2,2.7-2.7,2.7H11.9c-1.5,0-2.7-1.2-2.7-2.7
		V19.7C9.2,18.3,10.4,17.1,11.9,17.1L11.9,17.1z"/>
	<path class="st2" d="M20.4,24.2c-1.1,0-2,0.9-2,2v25.4c0,1.1,0.9,2,2,2c1.1,0,2-0.9,2-2V26.2C22.4,25.1,21.5,24.2,20.4,24.2z
		 M29.7,24.2c-1.1,0-2,0.9-2,2v25.4c0,1.1,0.9,2,2,2c1.1,0,2-0.9,2-2v0V26.2C31.7,25.1,30.8,24.2,29.7,24.2z M39,24.2
		c-1.1,0-2,0.9-2,2v25.4c0,1.1,0.9,2,2,2c1.1,0,2-0.9,2-2c0,0,0,0,0,0V26.2C41,25.1,40.1,24.2,39,24.2z M48.3,24.2c-1.1,0-2,0.9-2,2
		v25.4c0,1.1,0.9,2,2,2c1.1,0,2-0.9,2-2c0,0,0,0,0,0V26.2C50.3,25.1,49.4,24.2,48.3,24.2z"/>
	<path class="st1" d="M2.5,17.4c0.8,0,1.5-0.7,1.5-1.5v-3.1c0-0.5,0.4-0.9,0.9-0.9H8c0.8,0,1.5-0.7,1.5-1.5S8.8,9,8,9H4.8
		C2.7,9,1,10.7,1,12.8V16C1,16.8,1.7,17.4,2.5,17.4z M8,65.9H4.8c-0.5,0-0.9-0.4-0.9-0.9v-3.1c0-0.8-0.7-1.5-1.5-1.5
		C1.7,60.4,1,61,1,61.9V65c0,2.1,1.7,3.8,3.8,3.8H8c0.8,0,1.5-0.7,1.5-1.5C9.4,66.5,8.8,65.9,8,65.9L8,65.9L8,65.9z M76.5,60.4
		c-0.8,0-1.5,0.7-1.5,1.5V65c0,0.5-0.4,0.9-0.9,0.9H71c-0.8,0-1.5,0.7-1.5,1.5c0,0.8,0.7,1.5,1.5,1.5h3.1c1,0,2-0.4,2.7-1.1
		C77.6,67,78,66,78,65v-3.1C78,61,77.3,60.4,76.5,60.4L76.5,60.4z M74.2,9H71c-0.8,0-1.5,0.7-1.5,1.5s0.7,1.5,1.5,1.5h3.1
		c0.5,0,0.9,0.4,0.9,0.9V16c0,0.8,0.7,1.5,1.5,1.5c0.8,0,1.5-0.7,1.5-1.5v-3.1C78,10.7,76.3,9,74.2,9z"/>
	<path class="st2" d="M57.6,24.2c-1.1,0-2,0.9-2,2l0,0v25.4c0,1.1,0.9,2,2,2c1.1,0,2-0.9,2-2V26.2C59.5,25.1,58.7,24.2,57.6,24.2z"
		/>
</g>
</svg>
