<?xml version="1.0" encoding="utf-8"?>
<!-- Generator: Adobe Illustrator 26.0.1, SVG Export Plug-In . SVG Version: 6.00 Build 0)  -->
<svg version="1.1" id="레이어_1" xmlns="http://www.w3.org/2000/svg" xmlns:xlink="http://www.w3.org/1999/xlink" x="0px"
	 y="0px" viewBox="0 0 80 80" style="enable-background:new 0 0 80 80;" xml:space="preserve">
<style type="text/css">
	.st0{fill:#FFFFFF;stroke:#0E4926;stroke-width:3.01;}
	.st1{fill-rule:evenodd;clip-rule:evenodd;fill:#FFFFFF;stroke:#0E4926;stroke-miterlimit:10;}
	.st2{fill-rule:evenodd;clip-rule:evenodd;fill:#3DAD6B;}
	.st3{fill:none;stroke:#0E4926;stroke-width:3.01;stroke-linecap:round;stroke-linejoin:round;}
	.st4{fill:none;stroke:#0E4926;stroke-width:2.7124;}
	.st5{fill:#0E4926;}
</style>
<path class="st0" d="M44.7,20.8L44.7,20.8c-0.1-0.3-0.2-0.6-0.3-1c-0.2-0.6-0.4-1.3-0.6-1.9c-0.3-1-0.7-2.1-1.3-3
	c-0.5-0.8-1.3-1.8-2.6-2.1c-1.3-0.3-2.6,0.3-3.6,1.3l0,0c-2.7,2.5-2.5,6-1.4,9.5c0.2,0.6,0.3,1.1,0.5,1.7c0.1,0.2,0.1,0.5,0.2,0.7
	c0.2,0.8,0.4,1.5,0.8,2.2c0.3,0.7,0.8,1.4,1.6,1.9c0.9,0.5,1.8,0.5,2.8,0.2l0,0C44.6,29.2,45.9,24.7,44.7,20.8z"/>
<path class="st1" d="M5.5,31.7L4,38.5c0,0,41.6,22.6,43,23.2c1.5,0.6,10.4,4,14.6,3.2c4.2-0.8,7.1-3.2,7.1-3.2s-10.5,0.4-18.3-3.4
	C42.7,54.5,5.5,31.7,5.5,31.7z"/>
<path class="st2" d="M6.6,34.8c0,0,9.9,6.2,14.1,8.8c11.2,7,21.8,14,29.1,17c15.1,6.3,21.7,4.8,24.9,1.7c3.2-3,5.5-7.7,0-11.2
	c-5.5-3.5-4-0.2-11-5.2S46.6,25.6,45.9,22.8c-0.7-2.8-7,5.1-10.7,3.8c-3.7-1.3-5.6-0.6-6.3-3.8s-1.5-8.1-2.7-9.8c-1.2-1.7-4-5-8.9,0
	c-4.9,5-9.2,16.5-9.2,16.5L6.6,34.8z"/>
<path class="st3" d="M4,38.6l-1.5-0.3c-0.1,0.6,0.2,1.2,0.7,1.6L4,38.6z M4,38.6c-0.8,1.3-0.8,1.3-0.8,1.3l0,0l0,0l0,0l0.1,0
	l0.3,0.2c0.3,0.2,0.7,0.4,1.2,0.7c1,0.6,2.5,1.5,4.3,2.5c3.6,2.1,8.4,4.9,13.7,7.8c5.2,2.9,10.8,5.9,15.8,8.4
	c4.9,2.4,9.4,4.4,12.3,5.2c5.6,1.5,9,2,11.7,1.8c2.2-0.2,3.8-0.7,5.7-1.4c0.5-0.2,0.9-0.3,1.4-0.5h0c2.3-0.7,4.7-2.6,6.1-4.9
	c0.7-1.1,1.2-2.5,1.1-3.9c0-1.4-0.6-2.8-1.8-4 M4,38.6c-1.5-0.3-1.5-0.3-1.5-0.3l0,0l0,0l0,0l0,0c0,0,0-0.1,0-0.2
	c0-0.2,0.1-0.4,0.1-0.7C2.8,36.9,3,36,3.3,35c0.5-2,1.2-4.8,2.3-7.8c2-5.9,5.2-13.1,9.8-17.2l0,0c2.1-1.8,4-2.7,5.8-2.5
	c1.9,0.2,3.1,1.4,3.9,2.6c0.8,1.2,1.2,2.6,1.5,3.7c0.1,0.5,0.2,1,0.3,1.3c0,0.2,0,0.3,0.1,0.4c0,0,0,0.1,0,0.1l0,0l0,0l0,0l0,0
	c0,0,0,0-1.5,0.2l49.8,36 M43.6,22.7l1.3-0.8c-0.3-0.4-0.7-0.7-1.2-0.7c-0.5,0-1,0.2-1.3,0.6l0,0c0,0,0,0,0,0c0,0,0,0,0,0
	c0,0,0,0,0,0l0,0c0,0,0,0,0,0c0,0-0.1,0.1-0.1,0.2c-0.1,0.2-0.3,0.4-0.6,0.7c-0.5,0.5-1.3,1.2-2.2,1.8c-1.8,1.1-4.2,1.7-7.2,0.1
	c-3-1.7-4.3-3.9-4.9-5.6c-0.3-0.9-0.4-1.6-0.4-2.2c0-0.3,0-0.5,0-0.6c0-0.1,0-0.1,0-0.1c0,0,0,0,0,0c0,0,0,0,0,0c0,0,0,0,0,0l0,0
	l0,0L43.6,22.7z M43.6,22.7c1.3-0.8,1.3-0.8,1.3-0.8l0,0l0,0l0,0l0,0l0.1,0.2c0.1,0.1,0.2,0.4,0.4,0.6c0.4,0.6,0.9,1.4,1.5,2.3
	c1.3,2,3,4.6,4.9,7.3c1.9,2.7,3.9,5.5,5.7,7.8c0.9,1.2,1.7,2.2,2.5,3c0.8,0.8,1.4,1.4,1.8,1.6c1.8,1.2,3.6,1.8,5.6,2.5
	c0.3,0.1,0.7,0.2,1,0.4c2.3,0.8,4.7,1.9,6.8,4 M43.6,22.7l31.5,29.1"/>
<path class="st4" d="M6.6,23.7c11,4.9,14.1,10.2,13,14.7"/>
<path class="st4" d="M75.4,52.3c-10.8,1.3-17.1,1.5-21.1-4.6"/>
<path class="st5" d="M5.3,30.5v-1.1H5l-0.3,0.2L5.3,30.5z M4.7,32.4l-0.6,0.9l0,0L4.7,32.4z M5.9,30.6l-0.6,0.9l0,0l0,0L5.9,30.6z
	 M5.9,30.6l-0.6,0.9l0,0L5.9,30.6z M6,30.7l-0.6,0.9l0,0L6,30.7z M6.3,30.9l-0.6,0.9l0,0L6.3,30.9z M7.6,31.7l0.6-0.9L7.6,31.7z
	 M12,34.5l0.6-0.9L12,34.5z M25.9,43.1l0.6-0.9L25.9,43.1z M40.9,52.1l0.5-0.9l0,0L40.9,52.1z M50.1,57.3l0.4-1l0,0L50.1,57.3z
	 M50.1,57.3l0.4-1h0L50.1,57.3z M64.4,60.6l0.1-1.1l0,0L64.4,60.6z M70.3,61.1l0.1-1.1L70.3,61.1z M72.1,61.2l0.1-1.1L72.1,61.2z
	 M72.6,61.3l0,1.1h0L72.6,61.3z M72.7,61.3l0,1.1l0,0L72.7,61.3z M72.7,61.3l0,1.1h0L72.7,61.3z M72.7,61.3l0-1.1h0L72.7,61.3z
	 M72.7,61.3l0,1.1l0,0L72.7,61.3z M72.7,61.3l0.7-0.8l-0.3-0.3l-0.4,0L72.7,61.3z M72.9,63.4l0.2,1.1l0.4-0.1l0.3-0.3L72.9,63.4z
	 M72.7,63.4l0.1-1.1l0,0l0,0L72.7,63.4z M72.6,63.4l0,1.1l0,0L72.6,63.4z M72.5,63.4l0,1.1l0,0L72.5,63.4z M72,63.4L72,64.5L72,63.4
	z M70.2,63.3l0.1-1.1L70.2,63.3z M64.2,62.7L64,63.8L64.2,62.7z M49.2,59.3l-0.6,0.9l0.1,0l0.1,0L49.2,59.3z M4.7,32.5l-0.6,0.9l0,0
	L4.7,32.5z M4.8,32.5l-0.6,0.9l0,0L4.8,32.5z M4.8,32.5l-0.6,0.9l0,0L4.8,32.5z M4.9,32.5l-0.6,0.9l0,0L4.9,32.5z M5.2,32.7
	l-0.6,0.9l0,0L5.2,32.7z M6.4,33.5l-0.6,0.9l0,0L6.4,33.5z M10.9,36.3l-0.6,0.9L10.9,36.3z M24.8,44.9l-0.6,0.9L24.8,44.9z
	 M49.2,59.3l-0.4,1l1-1.9L49.2,59.3z M5.9,30.6l-0.6,0.9l1.1-1.8L5.9,30.6z M5.9,30.6l-0.6,0.9l0,0l0,0L5.9,30.6z M49.4,28.9
	l0.6,0.9L49.4,28.9z M49.7,27.4L48.8,28L49.7,27.4z M42.9,32.9l0.6,0.9L42.9,32.9z M41.7,31.1l0.6,0.9L41.7,31.1z M48.2,27.1
	l0.6,0.9L48.2,27.1z M50.8,32.9l0.5,0.9L50.8,32.9z M51.2,31.5L50.2,32L51.2,31.5z M45.8,35.9l-0.5-0.9L45.8,35.9z M44.3,35.5
	l0.9-0.5l0,0L44.3,35.5z M44.7,34l0.5,0.9L44.7,34z M49.7,31.1l-0.5-0.9L49.7,31.1z M53.7,35.9l0.5,0.9L53.7,35.9z M54.1,34.4
	l-0.9,0.5L54.1,34.4z M48.7,38.8l-0.5-0.9L48.7,38.8z M47.2,38.4l0.9-0.5l0,0L47.2,38.4z M47.6,36.9l0.5,0.9L47.6,36.9z M52.6,34
	l-0.5-0.9L52.6,34z M29.3,24.6l0.5,0.9l0,0L29.3,24.6z M29.7,23.2l0.9-0.5L29.7,23.2z M16.9,31.4l0.5,0.9L16.9,31.4z M15.4,31
	l0.9-0.5l0,0L15.4,31z M15.8,29.5l0.5,0.9L15.8,29.5z M28.2,22.7l-0.5-0.9l0,0L28.2,22.7z M61,45.7l0.4,1l0,0L61,45.7z M61.5,44.3
	l-1,0.4L61.5,44.3z M41.9,54.5l-0.4-1l0,0L41.9,54.5z M40.4,53.9l-1,0.4l0,0L40.4,53.9z M41,52.5l-0.4-1L41,52.5z M60.1,43.7l0.4,1
	l0,0L60.1,43.7z M4.7,29.6c-0.8,0.6-1.1,1.5-1.1,2.1c0,0.3,0,0.6,0.1,0.8c0,0.1,0,0.2,0.1,0.2c0,0,0,0.1,0,0.1c0,0,0,0,0,0
	c0,0,0,0,0,0c0,0,0,0,0,0c0,0,0,0,0,0c0,0,0,0,0,0.1c0,0,0.2,0.2,0.4,0.4l1.2-1.8c0.2,0.1,0.3,0.3,0.4,0.4c0,0,0,0.1,0,0.1
	c0,0,0,0,0,0c0,0,0,0,0,0c0,0,0,0,0,0c0,0,0,0,0,0c0,0,0,0,0,0c0,0,0,0,0-0.1c0-0.1,0-0.1,0-0.2c0-0.1,0-0.2,0.1-0.2
	c0-0.1,0.1-0.1,0.2-0.2L4.7,29.6z M6.5,29.7c-0.3-0.2-0.7-0.3-1.2-0.3v2.1c0,0,0,0,0,0c0,0,0,0,0,0L6.5,29.7z M6.5,29.7L6.5,29.7
	l-1.2,1.8l0,0L6.5,29.7z M6.6,29.8L6.6,29.8l-1.2,1.8l0.1,0.1L6.6,29.8z M6.9,30l-0.3-0.2l-1.1,1.8l0.3,0.2L6.9,30z M8.1,30.8
	c-0.5-0.3-0.9-0.6-1.2-0.8l-1.1,1.8C6,32,6.5,32.3,7,32.6L8.1,30.8z M12.6,33.5c-1.9-1.2-3.4-2.1-4.4-2.8L7,32.6
	c1.1,0.7,2.6,1.6,4.5,2.8L12.6,33.5z M26.5,42.2c-5.2-3.2-10.2-6.3-13.9-8.6l-1.1,1.8c3.7,2.3,8.7,5.4,13.9,8.6L26.5,42.2z
	 M41.4,51.2c-4.4-2.6-9.8-5.9-14.9-9.1L25.3,44c5.2,3.2,10.5,6.5,15,9.1L41.4,51.2z M50.5,56.3c-1.3-0.5-4.6-2.4-9.1-5.1l-1.1,1.8
	c4.4,2.6,7.9,4.6,9.3,5.2L50.5,56.3z M50.5,56.3L50.5,56.3l-0.9,2h0L50.5,56.3z M64.6,59.5c-4.7-0.6-10.2-1.5-14-3.2l-0.9,2
	c4.2,1.8,9.9,2.8,14.6,3.4L64.6,59.5z M70.4,60.1c-1.5-0.1-3.6-0.3-5.9-0.5l-0.3,2.1c2.4,0.3,4.5,0.5,6,0.6L70.4,60.1z M72.2,60.2
	c-0.4,0-1-0.1-1.7-0.1l-0.1,2.1c0.8,0,1.4,0.1,1.8,0.1L72.2,60.2z M72.6,60.2c-0.1,0-0.3,0-0.5,0l-0.1,2.1c0.2,0,0.4,0,0.5,0
	L72.6,60.2z M72.7,60.2l-0.1,0l-0.1,2.1l0.1,0L72.7,60.2z M72.8,60.2L72.8,60.2l-0.1,2.1l0,0L72.8,60.2z M72.8,60.2L72.8,60.2
	l-0.1,2.1l0,0L72.8,60.2z M72.8,60.2L72.8,60.2l-0.1,2.1l0,0L72.8,60.2z M72.8,60.2L72.8,60.2l-0.1,2.1h0L72.8,60.2z M73.7,64.1
	c0.7-0.9,0.7-1.9,0.4-2.5c-0.1-0.3-0.3-0.6-0.4-0.7c-0.1-0.1-0.1-0.2-0.2-0.2c0,0,0,0-0.1-0.1c0,0,0,0,0,0c0,0,0,0,0,0c0,0,0,0,0,0
	c0,0,0,0,0,0c0,0,0,0,0,0c0,0,0,0-0.7,0.8C72,62,72,62,72,62c0,0,0,0,0,0c0,0,0,0,0,0c0,0,0,0,0,0c0,0,0,0,0,0c0,0,0,0,0,0
	c0,0,0,0,0,0c0,0,0,0,0,0.1c0,0.1,0.1,0.1,0.1,0.2c0,0.1,0,0.1,0,0.2c0,0,0,0.1-0.1,0.3L73.7,64.1z M72.6,64.5c0.2,0,0.3,0,0.5,0
	l-0.3-2.1c0,0,0,0,0,0L72.6,64.5z M72.6,64.5L72.6,64.5l0.1-2.1l0,0L72.6,64.5z M72.5,64.5l0.1,0l0.1-2.1l-0.1,0L72.5,64.5z
	 M72,64.5c0.2,0,0.4,0,0.5,0l0.1-2.1c-0.1,0-0.3,0-0.5,0L72,64.5z M70.1,64.4c0.8,0.1,1.4,0.1,1.8,0.1l0.1-2.1c-0.4,0-1-0.1-1.8-0.1
	L70.1,64.4z M64,63.8c2.4,0.3,4.6,0.5,6.1,0.6l0.1-2.1c-1.5-0.1-3.6-0.3-6-0.6L64,63.8z M48.8,60.3c4.5,1.9,10.5,3,15.2,3.5l0.3-2.1
	c-4.7-0.6-10.5-1.6-14.6-3.4L48.8,60.3z M49.8,58.3L5.3,31.5l-1.1,1.8l44.5,26.8L49.8,58.3z M4.2,33.4L4.2,33.4l1.2-1.8l0,0
	L4.2,33.4z M4.2,33.4L4.2,33.4l1.2-1.8l0,0L4.2,33.4z M4.2,33.4L4.2,33.4l1.2-1.8l0,0L4.2,33.4z M4.2,33.4L4.2,33.4l1.2-1.8l0,0
	L4.2,33.4z M4.2,33.4L4.2,33.4l1.2-1.8l0,0L4.2,33.4z M4.2,33.4L4.2,33.4l1.2-1.8l0,0L4.2,33.4z M4.2,33.4L4.2,33.4l1.2-1.8
	l-0.1-0.1L4.2,33.4z M4.2,33.4L4.2,33.4l1.2-1.8l-0.1-0.1L4.2,33.4z M4.3,33.4l0.3,0.2l1.1-1.8l-0.3-0.2L4.3,33.4z M4.3,33.4
	l0.3,0.2l1.1-1.8l-0.3-0.2L4.3,33.4z M4.6,33.6c0.3,0.2,0.7,0.4,1.2,0.8L7,32.6c-0.5-0.3-1-0.6-1.2-0.8L4.6,33.6z M4.6,33.6l1.2,0.8
	L7,32.6l-1.2-0.8L4.6,33.6z M5.9,34.4c1.1,0.7,2.6,1.6,4.5,2.8l1.1-1.8c-1.9-1.2-3.4-2.1-4.5-2.8L5.9,34.4z M5.9,34.4l4.5,2.8
	l1.1-1.8L7,32.6L5.9,34.4z M10.3,37.2c3.7,2.3,8.7,5.4,13.9,8.6l1.1-1.8c-5.2-3.2-10.2-6.3-13.9-8.6L10.3,37.2z M10.3,37.2l13.9,8.6
	l1.1-1.8l-13.9-8.6L10.3,37.2z M24.2,45.8c5.2,3.2,10.6,6.5,15,9.1l1.1-1.8c-4.4-2.6-9.8-5.9-15-9.1L24.2,45.8z M24.2,45.8l15,9.1
	l1.1-1.8l-15-9.1L24.2,45.8z M39.2,54.9c4.4,2.6,8,4.7,9.6,5.3l0.9-2c-1.4-0.6-4.9-2.6-9.3-5.2L39.2,54.9z M39.2,54.9l9.5,5.3l1-1.9
	L40.3,53L39.2,54.9z M6.5,29.7C6.5,29.7,6.5,29.7,6.5,29.7C6.5,29.7,6.5,29.7,6.5,29.7C6.5,29.7,6.5,29.7,6.5,29.7
	C6.5,29.7,6.5,29.7,6.5,29.7C6.5,29.7,6.5,29.7,6.5,29.7C6.5,29.7,6.4,29.7,6.5,29.7C6.4,29.7,6.4,29.7,6.5,29.7
	C6.4,29.7,6.4,29.7,6.5,29.7c-0.1-0.1-0.6-0.2-1-0.1c-0.6,0.8-0.3,1.8-0.2,1.8c0,0,0,0,0.1,0c0,0,0,0,0,0c0,0,0,0,0,0c0,0,0,0,0,0
	c0,0,0,0,0,0c0,0,0,0,0,0c0,0,0,0,0,0c0,0,0,0,0,0c0,0,0,0,0,0c0,0,0,0,0,0L6.5,29.7C6.5,29.7,6.5,29.7,6.5,29.7
	C6.5,29.7,6.5,29.7,6.5,29.7C6.5,29.7,6.5,29.7,6.5,29.7C6.5,29.7,6.5,29.7,6.5,29.7C6.5,29.7,6.5,29.7,6.5,29.7
	C6.5,29.7,6.5,29.8,6.5,29.7c0.1,0,0.1,0.1,0.1,0.1c0.1,0,0.4,1-0.2,1.8c-0.4,0.1-0.9,0-0.9,0c0,0,0,0,0,0c0,0,0,0,0,0c0,0,0,0,0,0
	c0,0,0,0,0,0c0,0,0,0,0,0c0,0,0,0,0,0c0,0,0,0,0,0c0,0,0,0,0,0L6.5,29.7z M5.3,31.5L5.3,31.5l1.1-1.8h0L5.3,31.5z M49.9,29.8
	c1-0.6,1.3-2,0.7-3L48.8,28L49.9,29.8z M43.4,33.8l6.5-4L48.8,28l-6.5,4L43.4,33.8z M40.5,33.1c0.6,1,2,1.3,3,0.7L42.3,32L40.5,33.1
	z M41.2,30.2c-1,0.6-1.3,2-0.7,3l1.8-1.1L41.2,30.2z M47.7,26.1l-6.5,4l1.1,1.8l6.5-4L47.7,26.1z M50.6,26.8c-0.6-1-2-1.3-3-0.7
	l1.1,1.8L50.6,26.8z M51.3,33.9c1-0.6,1.4-1.9,0.8-2.9L50.2,32L51.3,33.9z M46.3,36.8l5-2.9L50.2,32l-5,2.9L46.3,36.8z M43.4,36
	c0.6,1,1.9,1.4,2.9,0.8l-1.1-1.9L43.4,36z M44.1,33.1c-1,0.6-1.4,1.9-0.8,2.9l1.9-1.1l0,0L44.1,33.1z M49.1,30.1l-5,2.9l1.1,1.9
	l5-2.9L49.1,30.1z M52.1,30.9c-0.6-1-1.9-1.4-2.9-0.8l1.1,1.9L52.1,30.9z M54.2,36.8c1-0.6,1.4-1.9,0.8-2.9l-1.9,1.1L54.2,36.8z
	 M49.2,39.7l5-2.9l-1.1-1.9l-5,2.9L49.2,39.7z M46.3,38.9c0.6,1,1.9,1.4,2.9,0.8l-1.1-1.9L46.3,38.9z M47,36c-1,0.6-1.4,1.9-0.8,2.9
	l1.9-1.1l0,0L47,36z M52.1,33.1L47,36l1.1,1.9l5-2.9L52.1,33.1z M55,33.8c-0.6-1-1.9-1.4-2.9-0.8l1.1,1.9L55,33.8z M29.8,25.6
	c1-0.6,1.4-1.9,0.9-2.9l-1.9,1L29.8,25.6z M17.4,32.4l12.4-6.8l-1-1.9l-12.4,6.8L17.4,32.4z M14.5,31.5c0.6,1,1.9,1.4,2.9,0.9
	l-1-1.9l0,0L14.5,31.5z M15.3,28.6c-1,0.6-1.4,1.9-0.9,2.9l1.9-1l0,0L15.3,28.6z M27.7,21.8l-12.4,6.8l1,1.9l12.4-6.8L27.7,21.8z
	 M30.6,22.6c-0.6-1-1.9-1.4-2.9-0.9l1,1.9l0,0L30.6,22.6z M61.4,46.7c1.1-0.5,1.6-1.8,1.1-2.9l-2,0.9l0,0L61.4,46.7z M42.3,55.4
	l19.1-8.8l-0.9-2l-19.1,8.8L42.3,55.4z M39.4,54.4c0.5,1.1,1.8,1.6,2.9,1.1l-0.9-2l0,0L39.4,54.4z M40.5,51.5
	c-1.1,0.5-1.6,1.8-1.1,2.9l2-0.9l0,0L40.5,51.5z M59.6,42.8l-19.1,8.8l0.9,2l19.1-8.8L59.6,42.8z M62.5,43.8
	c-0.5-1.1-1.8-1.6-2.9-1.1l0.9,2L62.5,43.8z"/>
</svg>
